<svg xmlns="http://www.w3.org/2000/svg" viewBox="0 0 820 264" width="100%" font-family="system-ui,-apple-system,sans-serif" role="img" aria-label="Compactness — a description, not a score"><rect width="820" height="264" fill="#fcfcfb"/><text x="0.0" y="16.0" font-size="13" fill="#0b0b0b" font-weight="600" text-anchor="start">Compactness — a description, not a score</text><line x1="190.0" y1="86.0" x2="688.0" y2="86.0" stroke="#e1e0d9"/><text x="190.0" y="99.0" font-size="10" fill="#898781" font-weight="400" text-anchor="start">87.2</text><text x="688.0" y="99.0" font-size="10" fill="#898781" font-weight="400" text-anchor="end">116</text><text x="178.0" y="46.0" font-size="12" fill="#0b0b0b" font-weight="400" text-anchor="end">ticks between capitals</text><line x1="238.2" y1="42.0" x2="343.0" y2="42.0" stroke="#2a78d6" stroke-width="2.5" stroke-linecap="round" opacity="0.5"/><circle cx="273.1" cy="42.0" r="4.2" fill="#2a78d6"/><text x="698.0" y="46.0" font-size="11" fill="#2a78d6" font-weight="400" text-anchor="start">92.0</text><line x1="308.0" y1="58.0" x2="482.7" y2="58.0" stroke="#eb6834" stroke-width="2.5" stroke-linecap="round" opacity="0.5"/><circle cx="373.5" cy="58.0" r="4.2" fill="#eb6834"/><text x="740.0" y="46.0" font-size="11" fill="#eb6834" font-weight="400" text-anchor="start">97.8</text><line x1="430.3" y1="74.0" x2="639.8" y2="74.0" stroke="#1baf7a" stroke-width="2.5" stroke-linecap="round" opacity="0.5"/><circle cx="526.3" cy="74.0" r="4.2" fill="#1baf7a"/><text x="782.0" y="46.0" font-size="11" fill="#1baf7a" font-weight="400" text-anchor="start">106</text><line x1="190.0" y1="168.0" x2="688.0" y2="168.0" stroke="#e1e0d9"/><text x="190.0" y="181.0" font-size="10" fill="#898781" font-weight="400" text-anchor="start">0.81</text><text x="688.0" y="181.0" font-size="10" fill="#898781" font-weight="400" text-anchor="end">0.97</text><text x="178.0" y="128.0" font-size="12" fill="#0b0b0b" font-weight="400" text-anchor="end">roundness (1.0 = circle)</text><line x1="286.4" y1="124.0" x2="469.4" y2="124.0" stroke="#2a78d6" stroke-width="2.5" stroke-linecap="round" opacity="0.5"/><circle cx="386.4" cy="124.0" r="4.2" fill="#2a78d6"/><text x="698.0" y="128.0" font-size="11" fill="#2a78d6" font-weight="400" text-anchor="start">0.87</text><line x1="238.2" y1="140.0" x2="428.9" y2="140.0" stroke="#eb6834" stroke-width="2.5" stroke-linecap="round" opacity="0.5"/><circle cx="335.8" cy="140.0" r="4.2" fill="#eb6834"/><text x="740.0" y="128.0" font-size="11" fill="#eb6834" font-weight="400" text-anchor="start">0.86</text><line x1="582.2" y1="156.0" x2="639.8" y2="156.0" stroke="#1baf7a" stroke-width="2.5" stroke-linecap="round" opacity="0.5"/><circle cx="615.5" cy="156.0" r="4.2" fill="#1baf7a"/><text x="782.0" y="128.0" font-size="11" fill="#1baf7a" font-weight="400" text-anchor="start">0.94</text><circle cx="183.0" cy="228.0" r="4.2" fill="#2a78d6"/><text x="192.0" y="232.0" font-size="11" fill="#0b0b0b" font-weight="400" text-anchor="start">as the game builds it</text><circle cx="342.9" cy="228.0" r="4.2" fill="#eb6834"/><text x="351.9" y="232.0" font-size="11" fill="#0b0b0b" font-weight="400" text-anchor="start">picked for fewest fronts</text><circle cx="520.5" cy="228.0" r="4.2" fill="#1baf7a"/><text x="529.5" y="232.0" font-size="11" fill="#0b0b0b" font-weight="400" text-anchor="start">capitals capped at 2–4 neighbours</text><text x="0.0" y="256.0" font-size="11" fill="#898781" font-weight="400" text-anchor="start">Dot = median across 1,000 maps, bar = interquartile range.  Each row on its own scale; the two share no unit.</text></svg>